<?xml version="1.0" encoding="utf-8"?>
<!-- Generator: Adobe Illustrator 17.0.0, SVG Export Plug-In . SVG Version: 6.00 Build 0)  -->
<!DOCTYPE svg PUBLIC "-//W3C//DTD SVG 1.1//EN" "http://www.w3.org/Graphics/SVG/1.1/DTD/svg11.dtd">
<svg version="1.1" xmlns="http://www.w3.org/2000/svg" xmlns:xlink="http://www.w3.org/1999/xlink" x="0px" y="0px"
	 width="314.15px" height="352.2px" viewBox="0 0 314.15 352.2" enable-background="new 0 0 314.15 352.2" xml:space="preserve">
<g id="Body">
	<linearGradient id="body_outer_1_" gradientUnits="userSpaceOnUse" x1="4.1169" y1="275.7857" x2="86.5743" y2="275.7857">
		<stop  offset="0" style="stop-color:#9EA7C9"/>
		<stop  offset="0.2168" style="stop-color:#9CA4C6"/>
		<stop  offset="0.39" style="stop-color:#949CBC"/>
		<stop  offset="0.5476" style="stop-color:#868EAB"/>
		<stop  offset="0.6301" style="stop-color:#7D849F"/>
	</linearGradient>
	<path id="body_outer" fill="url(#body_outer_1_)" d="M119.02,205.05l0.12,5.99c-13.53,0-59.77,13.5-66.27,14.58
		s-31.4,2.17-40.6,39.52s-7.58,56.84-8.12,62.8s5.95,16.24,16.78,17.86s259.85,0,269.6,0s18.95-9.2,20.57-15.7
		s-16.78-80.66-18.41-83.91s-10.29-15.7-27.61-20.03c-17.32-4.33-65.04-14.22-67.21-15.3c-0.21-2.6,0.08-5.79,0.08-5.79l-76.87,0.03
		L119.02,205.05z"/>
	<linearGradient id="midlight_1_" gradientUnits="userSpaceOnUse" x1="20.4894" y1="279.128" x2="377.4163" y2="279.128">
		<stop  offset="5.102041e-003" style="stop-color:#7D849F;stop-opacity:0.5"/>
		<stop  offset="0.2971" style="stop-color:#8289A5;stop-opacity:0.6467"/>
		<stop  offset="0.7014" style="stop-color:#9098B7;stop-opacity:0.85"/>
		<stop  offset="1" style="stop-color:#9EA7C9"/>
	</linearGradient>
	<path id="midlight" fill="url(#midlight_1_)" d="M20.49,330.93c0.55-8.61,9.26-79.96,16.27-89.47c6.7-9.09,13.66-12.19,22.49-15.9
		c8.82-3.71,58.77-10.2,66.9-10.2s60.95,0.35,86.97,10.2c25.38,9.6,77.08,29.86,58.72,45.37c-15.35,12.97-37.25,29.39-46.82,31.78
		c-9.57,2.39-45.99,34.17-188.26,40.19C30.71,343.15,20.33,333.38,20.49,330.93z"/>
	<linearGradient id="Hilite_1_1_" gradientUnits="userSpaceOnUse" x1="41.1212" y1="270.921" x2="285.5237" y2="270.921">
		<stop  offset="0" style="stop-color:#7D849F;stop-opacity:0.2"/>
		<stop  offset="1" style="stop-color:#FFFFFF;stop-opacity:0.6"/>
	</linearGradient>
	<path id="Hilite_1" fill="url(#Hilite_1_1_)" d="M93.56,336.59c36.27,3.59,154.67-26.83,189.85-79.51
		c11.03-26.83-24.39-29.87-32.2-31.52c-7.8-1.65-60-14.82-66.34-15.8c-6.34-0.98-39.95-11.24-70.95,1.69s-64.17,38.79-71.98,72.94
		S83.71,335.61,93.56,336.59z"/>
	<radialGradient id="SVGID_1_" cx="168.7411" cy="349.1071" r="137.0082" gradientUnits="userSpaceOnUse">
		<stop  offset="0" style="stop-color:#FFFFFF"/>
		<stop  offset="0.2005" style="stop-color:#EAEBF0;stop-opacity:0.8597"/>
		<stop  offset="0.6113" style="stop-color:#B5B9C8;stop-opacity:0.5721"/>
		<stop  offset="1" style="stop-color:#7D849F;stop-opacity:0.3"/>
	</radialGradient>
	<path fill="url(#SVGID_1_)" d="M295.77,344.95c19.94-8.08,11.05-61.29-4.81-82.57c-15.86-21.27-79.19-43.38-93.94-47.03
		s-87.74-8.63-109.46,4.5s-45.32,19.32-50.35,40.98s-9.67,81.64,39.07,85.69C125.02,350.57,295.77,344.95,295.77,344.95z"/>
	<polygon id="collar" fill="#FFFFFF" points="157.19,209.29 141.3,225.55 120.31,212.65 120.31,205.16 197.02,205.16 197.02,212.5 
		175.16,225.55 	"/>
</g>
<g id="head_and_neck">
	<rect id="Neck" x="123.42" y="173.11" fill="#FFD592" width="67.51" height="32.05"/>
	<path id="Face" fill="#FFCA8A" d="M99.18,159.98c-1.6-7.73-2.4-53.05-2.67-61.05c-0.27-8,11.73-52.25,17.59-55.98
		c5.86-3.73,102.9,47.98,103.7,58.11c0.8,10.13-8.8,61.31-10.13,65.31c-1.33,4-35.99,32.79-50.12,33.06S99.98,168.77,99.18,159.98z"
		/>
	
		<radialGradient id="Face_hilite_2_1_" cx="105.0693" cy="163.9309" r="30.2338" gradientTransform="matrix(0.7854 -0.619 2.3412 2.9708 -361.2443 -258.0455)" gradientUnits="userSpaceOnUse">
		<stop  offset="0" style="stop-color:#FFE2BE"/>
		<stop  offset="1" style="stop-color:#FFCA8A;stop-opacity:0"/>
	</radialGradient>
	<path id="Face_hilite_2" fill="url(#Face_hilite_2_1_)" d="M109.66,148.22c2.25,3,41.75,33.75,44,35.5s11.39,13.88,10.75,14.12
		c-12,4.13-26.79-4.12-49.46-20.92c-11.66-8.64-18.44-5.95-17.8-53.93c0.09-6.8-1.99-23.19,2.01-28.02
		c3.75,1.25,6.25,19.75,6.75,28.75S109.66,148.22,109.66,148.22z"/>
	<linearGradient id="Face_hilite_1_1_" gradientUnits="userSpaceOnUse" x1="155.172" y1="78.64" x2="134.0207" y2="154.5351">
		<stop  offset="0" style="stop-color:#FFE2BE"/>
		<stop  offset="1" style="stop-color:#FFCA8A;stop-opacity:0"/>
	</linearGradient>
	<path id="Face_hilite_1" fill="url(#Face_hilite_1_1_)" d="M204.66,76.97c2.3,2.3,1.75,43.25,0,48.25s-24.25,21-33,23.75
		s-69.05-30.25-75.15-59.75s12.15-58.25,28.4-53.5S202.66,74.97,204.66,76.97z"/>
	<linearGradient id="L_Hair_1_" gradientUnits="userSpaceOnUse" x1="90.3832" y1="125.9175" x2="95.5858" y2="41.4303">
		<stop  offset="0" style="stop-color:#9B6708"/>
		<stop  offset="0.2755" style="stop-color:#AB7109"/>
		<stop  offset="0.7002" style="stop-color:#BD7E0A"/>
		<stop  offset="1" style="stop-color:#C4820A"/>
	</linearGradient>
	<path id="L_Hair" fill="url(#L_Hair_1_)" d="M97.13,132.73c-10.8-5.08-24.87-48.46-19.8-65.26s14.4-26.66,17.59-27.19
		c3.2-0.53,16.26,1.33,17.06,9.6s-3.09,30.62-6.4,34.92C100.52,91.39,98.2,128.47,97.13,132.73z"/>
	<path id="R_Hair" fill="#80530B" d="M214.61,107.73c-3.47,0-29.06-0.8-47.98-18.66s-42.92-33.85-52.78-35.72
		c-9.86-1.87-23.34-12.53-19.67-18.66c3.67-6.13,17-30.12,49.79-29.86c32.79,0.27,59.98,10.66,72.77,28.26s20.79,43.45,21.33,61.58
		c0.53,18.13-20.94,31.99-23.33,34.12C215,121.86,214.61,107.73,214.61,107.73z"/>
	<linearGradient id="SVGID_2_" gradientUnits="userSpaceOnUse" x1="159.9178" y1="68.0348" x2="189.6743" y2="33.8377">
		<stop  offset="0" style="stop-color:#80530B"/>
		<stop  offset="0.2665" style="stop-color:#845812"/>
		<stop  offset="0.6438" style="stop-color:#8F6624"/>
		<stop  offset="1" style="stop-color:#9E783C"/>
	</linearGradient>
	<path fill="url(#SVGID_2_)" d="M143.41,9.76c34.18-0.62,85.85,13.17,85.85,87.8c-8.78,5.37-22.55,7.01-32.25-2.59
		s-41.32-59.85-48.93-63.75c-7.6-3.9-28.58-6.83-32.97-6.34C114.15,18.54,95.6,10.62,143.41,9.76z"/>
</g>
</svg>
